<mxfile host="Electron" agent="Mozilla/5.0 (Windows NT 10.0; Win64; x64) AppleWebKit/537.36 (KHTML, like Gecko) draw.io/28.1.2 Chrome/138.0.7204.243 Electron/37.4.0 Safari/537.36" version="28.1.2">
  <diagram name="OSPF Topology" id="UDRZ2F5VwbtfoszekqxI">
    <mxGraphModel dx="872" dy="537" grid="1" gridSize="10" guides="1" tooltips="1" connect="1" arrows="1" fold="1" page="1" pageScale="1" pageWidth="827" pageHeight="1169" math="0" shadow="0">
      <root>
        <mxCell id="0" />
        <mxCell id="1" parent="0" />
        <mxCell id="6rEMgTdUEgGlgwy9lPyB-31" value="" style="verticalLabelPosition=bottom;sketch=0;html=1;fillColor=#000099;strokeColor=#ffffff;verticalAlign=top;align=center;points=[[0,0.5,0],[0.125,0.25,0],[0.25,0,0],[0.5,0,0],[0.75,0,0],[0.875,0.25,0],[1,0.5,0],[0.875,0.75,0],[0.75,1,0],[0.5,1,0],[0.125,0.75,0]];pointerEvents=1;shape=mxgraph.cisco_safe.compositeIcon;bgIcon=mxgraph.cisco_safe.design.blank_device;resIcon=mxgraph.cisco_safe.design.access_switch_2;" parent="1" vertex="1">
          <mxGeometry x="125" y="209" width="70" height="60" as="geometry" />
        </mxCell>
        <mxCell id="6rEMgTdUEgGlgwy9lPyB-33" value="" style="verticalLabelPosition=bottom;sketch=0;html=1;fillColor=#000099;strokeColor=#ffffff;verticalAlign=top;align=center;points=[[0,0.5,0],[0.125,0.25,0],[0.25,0,0],[0.5,0,0],[0.75,0,0],[0.875,0.25,0],[1,0.5,0],[0.875,0.75,0],[0.75,1,0],[0.5,1,0],[0.125,0.75,0]];pointerEvents=1;shape=mxgraph.cisco_safe.compositeIcon;bgIcon=mxgraph.cisco_safe.design.blank_device;resIcon=mxgraph.cisco_safe.design.access_switch_2;" parent="1" vertex="1">
          <mxGeometry x="375" y="209" width="70" height="60" as="geometry" />
        </mxCell>
        <mxCell id="6rEMgTdUEgGlgwy9lPyB-34" value="" style="verticalLabelPosition=bottom;sketch=0;html=1;fillColor=#000099;strokeColor=#ffffff;verticalAlign=top;align=center;points=[[0,0.5,0],[0.125,0.25,0],[0.25,0,0],[0.5,0,0],[0.75,0,0],[0.875,0.25,0],[1,0.5,0],[0.875,0.75,0],[0.75,1,0],[0.5,1,0],[0.125,0.75,0]];pointerEvents=1;shape=mxgraph.cisco_safe.compositeIcon;bgIcon=mxgraph.cisco_safe.design.blank_device;resIcon=mxgraph.cisco_safe.design.access_switch_2;" parent="1" vertex="1">
          <mxGeometry x="611" y="209" width="70" height="60" as="geometry" />
        </mxCell>
        <mxCell id="6rEMgTdUEgGlgwy9lPyB-35" value="" style="shape=mxgraph.networks2.icon;aspect=fixed;fillColor=#dae8fc;strokeColor=#6c8ebf;network2IconShadow=1;network2bgFillColor=none;labelPosition=center;verticalLabelPosition=bottom;align=center;verticalAlign=top;network2Icon=mxgraph.networks2.pc;network2IconYOffset=-0.0593;network2IconW=0.9999;network2IconH=0.7096;" parent="1" vertex="1">
          <mxGeometry x="84" y="326" width="49.99" height="35.48" as="geometry" />
        </mxCell>
        <mxCell id="6rEMgTdUEgGlgwy9lPyB-36" value="" style="shape=mxgraph.networks2.icon;aspect=fixed;fillColor=#dae8fc;strokeColor=#6c8ebf;network2IconShadow=1;network2bgFillColor=none;labelPosition=center;verticalLabelPosition=bottom;align=center;verticalAlign=top;network2Icon=mxgraph.networks2.pc;network2IconYOffset=-0.0593;network2IconW=0.9999;network2IconH=0.7096;" parent="1" vertex="1">
          <mxGeometry x="174.01" y="326" width="49.995" height="35.480000000000004" as="geometry" />
        </mxCell>
        <mxCell id="6rEMgTdUEgGlgwy9lPyB-37" value="" style="shape=mxgraph.networks2.icon;aspect=fixed;fillColor=#6d8764;strokeColor=#3A5431;network2IconShadow=1;network2bgFillColor=none;labelPosition=center;verticalLabelPosition=bottom;align=center;verticalAlign=top;network2Icon=mxgraph.networks2.pc;network2IconYOffset=-0.0593;network2IconW=0.9999;network2IconH=0.7096;fontColor=#ffffff;" parent="1" vertex="1">
          <mxGeometry x="329" y="326" width="49.995" height="35.480000000000004" as="geometry" />
        </mxCell>
        <mxCell id="6rEMgTdUEgGlgwy9lPyB-38" value="" style="shape=mxgraph.networks2.icon;aspect=fixed;fillColor=#6d8764;strokeColor=#3A5431;network2IconShadow=1;network2bgFillColor=none;labelPosition=center;verticalLabelPosition=bottom;align=center;verticalAlign=top;network2Icon=mxgraph.networks2.pc;network2IconYOffset=-0.0593;network2IconW=0.9999;network2IconH=0.7096;fontColor=#ffffff;" parent="1" vertex="1">
          <mxGeometry x="436" y="326" width="49.995" height="35.480000000000004" as="geometry" />
        </mxCell>
        <mxCell id="6rEMgTdUEgGlgwy9lPyB-39" value="" style="shape=mxgraph.networks2.icon;aspect=fixed;fillColor=#ffcccc;strokeColor=#36393d;network2IconShadow=1;network2bgFillColor=none;labelPosition=center;verticalLabelPosition=bottom;align=center;verticalAlign=top;network2Icon=mxgraph.networks2.pc;network2IconYOffset=-0.0593;network2IconW=0.9999;network2IconH=0.7096;" parent="1" vertex="1">
          <mxGeometry x="576" y="326" width="49.995" height="35.480000000000004" as="geometry" />
        </mxCell>
        <mxCell id="6rEMgTdUEgGlgwy9lPyB-40" value="" style="shape=mxgraph.networks2.icon;aspect=fixed;fillColor=#ffcccc;strokeColor=#36393d;network2IconShadow=1;network2bgFillColor=none;labelPosition=center;verticalLabelPosition=bottom;align=center;verticalAlign=top;network2Icon=mxgraph.networks2.pc;network2IconYOffset=-0.0593;network2IconW=0.9999;network2IconH=0.7096;" parent="1" vertex="1">
          <mxGeometry x="686" y="326" width="49.995" height="35.480000000000004" as="geometry" />
        </mxCell>
        <mxCell id="6rEMgTdUEgGlgwy9lPyB-41" value="" style="image;aspect=fixed;perimeter=ellipsePerimeter;html=1;align=center;shadow=0;dashed=0;spacingTop=3;image=img/lib/active_directory/web_server.svg;" parent="1" vertex="1">
          <mxGeometry x="255" y="389" width="40" height="50" as="geometry" />
        </mxCell>
        <mxCell id="6rEMgTdUEgGlgwy9lPyB-42" value="" style="endArrow=none;html=1;rounded=0;exitX=0.54;exitY=0.028;exitDx=0;exitDy=0;exitPerimeter=0;strokeWidth=3;fillColor=#ffcccc;strokeColor=#FFCCCC;" parent="1" edge="1">
          <mxGeometry width="50" height="50" relative="1" as="geometry">
            <mxPoint x="596.9973" y="326.99343999999996" as="sourcePoint" />
            <mxPoint x="630" y="269" as="targetPoint" />
          </mxGeometry>
        </mxCell>
        <mxCell id="6rEMgTdUEgGlgwy9lPyB-43" value="" style="endArrow=none;html=1;rounded=0;entryX=0.7;entryY=0.85;entryDx=0;entryDy=0;entryPerimeter=0;exitX=0.18;exitY=0.028;exitDx=0;exitDy=0;exitPerimeter=0;strokeWidth=3;fillColor=#ffcccc;strokeColor=#FFCCCC;" parent="1" source="6rEMgTdUEgGlgwy9lPyB-40" edge="1">
          <mxGeometry width="50" height="50" relative="1" as="geometry">
            <mxPoint x="706" y="329" as="sourcePoint" />
            <mxPoint x="661" y="268" as="targetPoint" />
          </mxGeometry>
        </mxCell>
        <mxCell id="6rEMgTdUEgGlgwy9lPyB-44" value="" style="endArrow=none;html=1;rounded=0;exitX=0.58;exitY=0.028;exitDx=0;exitDy=0;exitPerimeter=0;strokeWidth=3;fillColor=#6d8764;strokeColor=#3A5431;" parent="1" source="6rEMgTdUEgGlgwy9lPyB-37" edge="1">
          <mxGeometry width="50" height="50" relative="1" as="geometry">
            <mxPoint x="346" y="329" as="sourcePoint" />
            <mxPoint x="393" y="269" as="targetPoint" />
          </mxGeometry>
        </mxCell>
        <mxCell id="6rEMgTdUEgGlgwy9lPyB-45" value="" style="endArrow=none;html=1;rounded=0;exitX=0.36;exitY=0.085;exitDx=0;exitDy=0;exitPerimeter=0;strokeWidth=3;fillColor=#6d8764;strokeColor=#3A5431;" parent="1" edge="1">
          <mxGeometry width="50" height="50" relative="1" as="geometry">
            <mxPoint x="450.9982" y="328.0157999999999" as="sourcePoint" />
            <mxPoint x="428" y="268" as="targetPoint" />
          </mxGeometry>
        </mxCell>
        <mxCell id="6rEMgTdUEgGlgwy9lPyB-46" value="" style="endArrow=none;html=1;rounded=0;strokeWidth=3;fillColor=#dae8fc;strokeColor=#6c8ebf;" parent="1" edge="1">
          <mxGeometry width="50" height="50" relative="1" as="geometry">
            <mxPoint x="114" y="325" as="sourcePoint" />
            <mxPoint x="143" y="270" as="targetPoint" />
          </mxGeometry>
        </mxCell>
        <mxCell id="6rEMgTdUEgGlgwy9lPyB-51" value="" style="endArrow=none;html=1;rounded=0;exitX=0.4;exitY=0.085;exitDx=0;exitDy=0;exitPerimeter=0;strokeWidth=3;fillColor=#dae8fc;strokeColor=#6c8ebf;" parent="1" edge="1">
          <mxGeometry width="50" height="50" relative="1" as="geometry">
            <mxPoint x="196.00800000000004" y="329.0157999999999" as="sourcePoint" />
            <mxPoint x="177" y="269" as="targetPoint" />
          </mxGeometry>
        </mxCell>
        <mxCell id="6rEMgTdUEgGlgwy9lPyB-55" value="" style="endArrow=none;html=1;rounded=0;strokeWidth=3;strokeColor=#990000;" parent="1" edge="1">
          <mxGeometry width="50" height="50" relative="1" as="geometry">
            <mxPoint x="194" y="238.5" as="sourcePoint" />
            <mxPoint x="274" y="238.5" as="targetPoint" />
          </mxGeometry>
        </mxCell>
        <mxCell id="6rEMgTdUEgGlgwy9lPyB-56" value="" style="endArrow=none;html=1;rounded=0;" parent="1" edge="1">
          <mxGeometry width="50" height="50" relative="1" as="geometry">
            <mxPoint x="274" y="299" as="sourcePoint" />
            <mxPoint x="274" y="239" as="targetPoint" />
          </mxGeometry>
        </mxCell>
        <mxCell id="6rEMgTdUEgGlgwy9lPyB-57" value="" style="endArrow=none;html=1;rounded=0;exitX=0.25;exitY=0;exitDx=0;exitDy=0;strokeWidth=3;strokeColor=#990000;" parent="1" edge="1">
          <mxGeometry width="50" height="50" relative="1" as="geometry">
            <mxPoint x="274.0557280900009" y="390.6393202250024" as="sourcePoint" />
            <mxPoint x="273" y="238" as="targetPoint" />
          </mxGeometry>
        </mxCell>
        <mxCell id="6rEMgTdUEgGlgwy9lPyB-26" value="" style="shape=mxgraph.cisco.routers.router;html=1;pointerEvents=1;dashed=0;fillColor=#036897;strokeColor=#ffffff;strokeWidth=2;verticalLabelPosition=bottom;verticalAlign=top;align=center;outlineConnect=0;" parent="1" vertex="1">
          <mxGeometry x="370" y="82" width="78" height="53" as="geometry" />
        </mxCell>
        <UserObject label="" id="6rEMgTdUEgGlgwy9lPyB-27">
          <mxCell style="shape=mxgraph.cisco.routers.router;html=1;pointerEvents=1;dashed=0;fillColor=#036897;strokeColor=#ffffff;strokeWidth=2;verticalLabelPosition=bottom;verticalAlign=top;align=center;outlineConnect=0;" parent="1" vertex="1">
            <mxGeometry x="120" y="80" width="78" height="53" as="geometry" />
          </mxCell>
        </UserObject>
        <mxCell id="6rEMgTdUEgGlgwy9lPyB-28" value="" style="shape=mxgraph.cisco.routers.router;html=1;pointerEvents=1;dashed=0;fillColor=#036897;strokeColor=#ffffff;strokeWidth=2;verticalLabelPosition=bottom;verticalAlign=top;align=center;outlineConnect=0;" parent="1" vertex="1">
          <mxGeometry x="605" y="82" width="78" height="53" as="geometry" />
        </mxCell>
        <mxCell id="uypvN38B1w4LRXVQkTND-3" value="" style="curved=1;endArrow=none;html=1;rounded=0;entryX=0;entryY=0.5;entryDx=0;entryDy=0;entryPerimeter=0;strokeWidth=3;strokeColor=#990000;endFill=0;" parent="1" edge="1">
          <mxGeometry width="50" height="50" relative="1" as="geometry">
            <mxPoint x="197" y="109" as="sourcePoint" />
            <mxPoint x="370" y="110.5" as="targetPoint" />
            <Array as="points">
              <mxPoint x="247" y="109" />
              <mxPoint x="282" y="129" />
              <mxPoint x="282" y="89" />
            </Array>
          </mxGeometry>
        </mxCell>
        <mxCell id="uypvN38B1w4LRXVQkTND-5" value="" style="curved=1;endArrow=none;html=1;rounded=0;strokeWidth=3;strokeColor=#990000;endFill=0;" parent="1" edge="1">
          <mxGeometry width="50" height="50" relative="1" as="geometry">
            <mxPoint x="446" y="113" as="sourcePoint" />
            <mxPoint x="607" y="115" as="targetPoint" />
            <Array as="points">
              <mxPoint x="496" y="113" />
              <mxPoint x="531" y="133" />
              <mxPoint x="531" y="93" />
            </Array>
          </mxGeometry>
        </mxCell>
        <mxCell id="uypvN38B1w4LRXVQkTND-17" style="edgeStyle=orthogonalEdgeStyle;rounded=0;html=1;strokeWidth=3;startSize=6;endSize=4;jumpSize=6;" parent="1" edge="1">
          <mxGeometry relative="1" as="geometry">
            <mxPoint x="158.5" y="133" as="sourcePoint" />
            <mxPoint x="159" y="210" as="targetPoint" />
          </mxGeometry>
        </mxCell>
        <mxCell id="uypvN38B1w4LRXVQkTND-20" style="edgeStyle=orthogonalEdgeStyle;rounded=0;html=1;strokeWidth=3;startSize=6;endSize=4;jumpSize=6;" parent="1" edge="1">
          <mxGeometry relative="1" as="geometry">
            <mxPoint x="408.5" y="133" as="sourcePoint" />
            <mxPoint x="409" y="210" as="targetPoint" />
          </mxGeometry>
        </mxCell>
        <mxCell id="uypvN38B1w4LRXVQkTND-21" style="edgeStyle=orthogonalEdgeStyle;rounded=0;html=1;strokeWidth=3;startSize=6;endSize=4;jumpSize=6;" parent="1" edge="1">
          <mxGeometry relative="1" as="geometry">
            <mxPoint x="643.5" y="133" as="sourcePoint" />
            <mxPoint x="644" y="210" as="targetPoint" />
          </mxGeometry>
        </mxCell>
        <mxCell id="E1nGFpHM6edYc5PxUbZx-1" value="&lt;pre&gt;&lt;b&gt;&lt;font style=&quot;font-size: 14px; color: rgb(102, 0, 0);&quot;&gt;R1&lt;/font&gt;&lt;/b&gt;&lt;/pre&gt;" style="text;strokeColor=none;align=center;fillColor=none;html=1;verticalAlign=middle;whiteSpace=wrap;rounded=0;" parent="1" vertex="1">
          <mxGeometry x="130" y="60" width="60" height="30" as="geometry" />
        </mxCell>
        <mxCell id="E1nGFpHM6edYc5PxUbZx-2" value="&lt;pre&gt;&lt;b&gt;&lt;font style=&quot;font-size: 14px; color: rgb(102, 0, 0);&quot;&gt;R2&lt;/font&gt;&lt;/b&gt;&lt;/pre&gt;" style="text;strokeColor=none;align=center;fillColor=none;html=1;verticalAlign=middle;whiteSpace=wrap;rounded=0;" parent="1" vertex="1">
          <mxGeometry x="380" y="60" width="60" height="30" as="geometry" />
        </mxCell>
        <mxCell id="E1nGFpHM6edYc5PxUbZx-3" value="&lt;pre&gt;&lt;b&gt;&lt;font style=&quot;font-size: 14px; color: rgb(102, 0, 0);&quot;&gt;R3&lt;/font&gt;&lt;/b&gt;&lt;/pre&gt;" style="text;strokeColor=none;align=center;fillColor=none;html=1;verticalAlign=middle;whiteSpace=wrap;rounded=0;" parent="1" vertex="1">
          <mxGeometry x="614" y="60" width="60" height="30" as="geometry" />
        </mxCell>
        <mxCell id="E1nGFpHM6edYc5PxUbZx-4" value="&lt;b&gt;&lt;font style=&quot;color: rgb(102, 0, 0);&quot;&gt;SW1&lt;/font&gt;&lt;/b&gt;" style="text;strokeColor=none;align=center;fillColor=none;html=1;verticalAlign=middle;whiteSpace=wrap;rounded=0;" parent="1" vertex="1">
          <mxGeometry x="130" y="247" width="60" height="30" as="geometry" />
        </mxCell>
        <mxCell id="E1nGFpHM6edYc5PxUbZx-6" value="&lt;b&gt;&lt;font style=&quot;color: rgb(102, 0, 0);&quot;&gt;SW2&lt;/font&gt;&lt;/b&gt;" style="text;strokeColor=none;align=center;fillColor=none;html=1;verticalAlign=middle;whiteSpace=wrap;rounded=0;" parent="1" vertex="1">
          <mxGeometry x="380" y="247" width="60" height="30" as="geometry" />
        </mxCell>
        <mxCell id="E1nGFpHM6edYc5PxUbZx-7" value="&lt;b&gt;&lt;font style=&quot;color: rgb(102, 0, 0);&quot;&gt;SW3&lt;/font&gt;&lt;/b&gt;" style="text;strokeColor=none;align=center;fillColor=none;html=1;verticalAlign=middle;whiteSpace=wrap;rounded=0;" parent="1" vertex="1">
          <mxGeometry x="616" y="247" width="60" height="30" as="geometry" />
        </mxCell>
        <mxCell id="jvcm0DXvU14hn_xN8BBK-4" value="|Device  |IP / Notes         |&#xa;| ---------|----------------- ----|&#xa;| R1      |192.168.10.1/24|&#xa;| R1      |10.0.12.1/30      |&#xa;| R2      |192.168.20.1/24|&#xa;| R2      |10.0.12.2/30      |&#xa;| R2      |10.0.23.1/30      |&#xa;| R3      |192.168.30.1/2  |&#xa;| R3      |10.0.23.2/30      |" style="text;whiteSpace=wrap;" parent="1" vertex="1">
          <mxGeometry x="576" y="480" width="170" height="150" as="geometry" />
        </mxCell>
        <mxCell id="jvcm0DXvU14hn_xN8BBK-5" value="Device    IP Address           Gateway&#xa;PC1     192.168.10.11 /24    192.168.10.1&#xa;PC2     192.168.10.12 /24    192.168.10.1&#xa;PC3     192.168.20.21 /24    192.168.20.1&#xa;PC4     192.168.20.22 /24    192.168.20.1    &#xa;PC5     192.168.30.31 /24    192.168.30.1&#xa;PC6     192.168.30.32 /24    192.168.30.1&#xa;Server  192.168.10.100 /24 192.168.10.1" style="text;whiteSpace=wrap;" parent="1" vertex="1">
          <mxGeometry x="84" y="480" width="270" height="140" as="geometry" />
        </mxCell>
        <mxCell id="Xpl8wLyRkTMwisEB2I1B-1" value="&lt;b&gt;PC1&lt;/b&gt;" style="text;strokeColor=none;align=center;fillColor=none;html=1;verticalAlign=middle;whiteSpace=wrap;rounded=0;" vertex="1" parent="1">
          <mxGeometry x="79" y="370" width="60" height="30" as="geometry" />
        </mxCell>
        <mxCell id="Xpl8wLyRkTMwisEB2I1B-2" value="&lt;b&gt;PC2&lt;/b&gt;" style="text;strokeColor=none;align=center;fillColor=none;html=1;verticalAlign=middle;whiteSpace=wrap;rounded=0;" vertex="1" parent="1">
          <mxGeometry x="164" y="370" width="60" height="30" as="geometry" />
        </mxCell>
        <mxCell id="Xpl8wLyRkTMwisEB2I1B-3" value="&lt;b&gt;PC3&lt;/b&gt;" style="text;strokeColor=none;align=center;fillColor=none;html=1;verticalAlign=middle;whiteSpace=wrap;rounded=0;" vertex="1" parent="1">
          <mxGeometry x="330" y="370" width="60" height="30" as="geometry" />
        </mxCell>
        <mxCell id="Xpl8wLyRkTMwisEB2I1B-4" value="&lt;b&gt;PC4&lt;/b&gt;" style="text;strokeColor=none;align=center;fillColor=none;html=1;verticalAlign=middle;whiteSpace=wrap;rounded=0;" vertex="1" parent="1">
          <mxGeometry x="436" y="370" width="60" height="30" as="geometry" />
        </mxCell>
        <mxCell id="Xpl8wLyRkTMwisEB2I1B-6" value="&lt;b&gt;PC5&lt;/b&gt;" style="text;strokeColor=none;align=center;fillColor=none;html=1;verticalAlign=middle;whiteSpace=wrap;rounded=0;" vertex="1" parent="1">
          <mxGeometry x="576" y="370" width="60" height="30" as="geometry" />
        </mxCell>
        <mxCell id="Xpl8wLyRkTMwisEB2I1B-7" value="&lt;b&gt;PC6&lt;/b&gt;" style="text;strokeColor=none;align=center;fillColor=none;html=1;verticalAlign=middle;whiteSpace=wrap;rounded=0;" vertex="1" parent="1">
          <mxGeometry x="690" y="370" width="60" height="30" as="geometry" />
        </mxCell>
        <mxCell id="Xpl8wLyRkTMwisEB2I1B-8" value="&lt;b&gt;SERVER&lt;/b&gt;" style="text;strokeColor=none;align=center;fillColor=none;html=1;verticalAlign=middle;whiteSpace=wrap;rounded=0;" vertex="1" parent="1">
          <mxGeometry x="245" y="431" width="60" height="30" as="geometry" />
        </mxCell>
      </root>
    </mxGraphModel>
  </diagram>
</mxfile>
